PathFileType	4	(X/Y/Z)	D:\TRACE\spotREDO_2-26-24\spot_justBody_Motion_3_3-platform.trc
DataRate	CameraRate	NumFrames	NumMarkers	Units	OrigDataRate	OrigDataStartFrame	OrigNumFrames
100.00	100.00	      66	5	mm	100.00	4376	      7000
Frame#	Time	Left_Front			Right_Front			Left_Aft			Right_Aft			Post			
		X1	Y1	Z1	X2	Y2	Z2	X3	Y3	Z3	X4	Y4	Z4	X5	Y5	Z5	

4376	43.750	-696.35986	12.83579	-570.93378	718.42847	19.60637	-486.56583	-767.52472	-13.51980	647.50433	802.69055	-5.92519	651.06512	13.82791	651.36206	-959.64355	
4377	43.760	-696.41968	13.39553	-570.83698	718.29498	20.05121	-486.52988	-767.71344	-13.79320	647.47278	802.54309	-6.54694	651.06885	12.91843	652.30957	-959.00616	
4378	43.770	-696.54584	14.14906	-570.85785	718.26068	20.33587	-486.28165	-767.76733	-14.17146	647.55878	802.63885	-6.89547	651.49603	14.21166	653.15417	-957.74445	
4379	43.780	-696.68109	14.62842	-570.69666	718.01318	20.92185	-486.34201	-767.68231	-14.73328	647.82172	802.54065	-7.38219	651.52087	13.65404	653.82257	-957.49994	
4380	43.790	-696.64392	14.88353	-570.60596	717.89874	21.18632	-486.29706	-767.67883	-15.49299	647.99030	802.38013	-7.82567	651.56085	13.63416	654.49109	-956.98676	
4381	43.800	-696.69336	15.13729	-570.41473	717.90430	21.54436	-486.05743	-767.75037	-15.76077	648.13550	802.38635	-8.15394	651.77155	13.71561	655.20978	-956.43909	
4382	43.810	-696.75946	15.41964	-570.31677	718.05774	21.81180	-485.84628	-767.64801	-15.76276	648.25195	802.42426	-8.56703	651.93719	13.61652	655.64972	-955.91064	
4383	43.820	-696.85553	15.90722	-570.36102	718.18243	21.82932	-485.59598	-767.92761	-16.23998	648.26343	802.37366	-8.99327	651.98981	12.80761	656.30035	-955.41010	
4384	43.830	-696.81281	16.20691	-570.23907	718.36951	22.08970	-485.40292	-767.95343	-16.69180	648.16486	802.52521	-9.53175	651.81812	12.52187	657.07141	-955.21472	
4385	43.840	-696.85461	16.62974	-570.00433	718.37030	22.52584	-485.32425	-768.01013	-17.02935	648.12366	803.02448	-9.03714	652.25598	12.31170	657.61597	-954.80878	
4386	43.850	-696.74591	16.99866	-569.90833	718.29175	22.83583	-485.26532	-767.86682	-17.63700	648.42169	802.38220	-10.71230	651.86169	12.50363	658.02850	-954.52875	
4387	43.860	-696.74347	17.28925	-569.83588	718.16479	23.22726	-485.30371	-767.83612	-17.72644	648.47882	802.37726	-10.84862	651.92334	12.66953	658.65686	-954.33954	
4388	43.870	-696.77472	17.63923	-569.73724	718.02173	23.44078	-485.14844	-767.76068	-18.27908	648.63599	802.45062	-11.06510	652.00653	12.82429	659.23267	-953.67181	
4389	43.880	-696.82190	17.89392	-569.63153	718.08539	23.59173	-485.10153	-767.60938	-18.46507	648.67365	802.47650	-11.45474	652.04663	12.44801	659.75745	-953.24835	
4390	43.890	-696.82715	18.05805	-569.59485	718.08990	23.76346	-485.04083	-767.62872	-18.56591	648.72266	802.46783	-11.73034	652.04095	12.14254	660.04114	-952.61023	
4391	43.900	-696.83392	18.24334	-569.58221	717.93225	24.18209	-485.11276	-767.60651	-18.76710	648.80518	802.44415	-11.70891	652.39484	12.43113	660.35266	-952.18878	
4392	43.910	-696.77222	18.45992	-569.54114	718.03357	24.33164	-485.02753	-767.67120	-19.00250	648.76593	802.55939	-11.83467	652.43445	12.57851	660.81647	-951.94446	
4393	43.920	-696.48944	18.80313	-569.44635	718.19922	24.59607	-485.00677	-767.52997	-19.13362	648.76990	802.63495	-11.96579	652.50134	12.85025	661.31274	-951.32996	
4394	43.930	-696.28040	19.18406	-569.30493	718.45642	24.87236	-484.93771	-767.38983	-19.11497	648.75165	802.92523	-12.12946	652.54449	12.98311	661.58087	-951.05579	
4395	43.940	-696.15436	19.34008	-569.25238	718.76709	25.13015	-484.78564	-767.07330	-19.26873	648.82947	803.17712	-12.32630	652.58191	13.29767	661.75256	-950.75934	
4396	43.950	-696.04340	19.52150	-569.20544	719.20190	25.01300	-484.60339	-766.81860	-19.58084	648.91913	803.43915	-12.47023	652.66211	13.44698	661.86322	-950.62500	
4397	43.960	-695.83594	19.62034	-569.19025	719.45490	25.13172	-484.59726	-766.49182	-20.12042	648.97363	803.65808	-12.53469	652.68878	13.52237	662.05438	-950.62610	
4398	43.970	-695.64185	19.68975	-569.08752	719.39954	25.38892	-484.77951	-766.47461	-20.23919	649.04828	803.76270	-12.64743	652.73608	13.93960	662.21454	-950.60498	
4399	43.980	-695.41077	19.77785	-569.05060	719.53253	25.46017	-484.69659	-766.21759	-20.26084	649.05988	803.97321	-12.73965	652.79156	14.41119	662.46173	-950.60095	
4400	43.990	-695.21887	19.83365	-569.02960	719.80524	25.57686	-484.66562	-766.21271	-20.33629	649.03906	804.09076	-12.86733	652.75391	14.49608	662.64136	-950.67712	
4401	44.000	-695.09009	19.92016	-568.92590	720.09991	25.59727	-484.57266	-766.01221	-20.47170	648.96155	804.24023	-12.99675	652.75659	14.71726	662.76624	-950.65271	
4402	44.010	-694.98547	19.91380	-568.96399	720.22900	25.57747	-484.57211	-765.81335	-20.68447	649.01105	804.63593	-13.08039	652.76300	14.58088	662.85907	-950.62445	
4403	44.020	-694.85352	19.96612	-568.94049	720.30707	25.55746	-484.56647	-765.51691	-20.56939	649.18420	804.87744	-13.14868	652.84204	14.81185	662.96246	-950.41718	
4404	44.030	-694.64893	20.02196	-568.95520	720.47534	25.62326	-484.59915	-765.30292	-20.64345	649.24133	805.12842	-13.25700	652.90295	14.98743	663.08716	-950.18195	
4405	44.040	-694.38007	20.08586	-568.87659	720.60095	25.68663	-484.56265	-765.23041	-20.74657	649.14362	805.26953	-13.23817	652.92200	15.10994	663.13971	-950.01593	
4406	44.050	-694.01599	20.14645	-568.92407	720.73480	25.76616	-484.48669	-764.99225	-20.75501	649.13422	805.46619	-13.22529	652.92334	15.44431	663.20392	-949.80725	
4407	44.060	-693.53821	20.16636	-568.88049	720.90283	25.69642	-484.51117	-764.77869	-20.84038	649.08667	805.67291	-13.26622	652.91559	15.60800	663.28345	-949.69092	
4408	44.070	-693.21942	20.11118	-568.86279	721.17987	25.63309	-484.52429	-764.53882	-20.78259	649.12830	805.86768	-13.33775	652.91174	15.84000	663.34161	-949.67480	
4409	44.080	-692.97308	20.11642	-568.85925	721.67688	25.54673	-484.46884	-764.24664	-20.75658	649.11230	806.13647	-13.41552	652.94806	16.39072	663.35870	-949.66589	
4410	44.090	-692.81702	20.14654	-568.83685	722.05988	25.64818	-484.48959	-763.89825	-20.74241	649.09082	806.35052	-13.41963	652.90002	16.60960	663.45050	-949.76740	
4411	44.100	-692.67377	20.19858	-568.86896	722.40857	25.85230	-484.48389	-763.64923	-20.72782	649.05719	806.47711	-13.44642	652.91418	16.62702	663.51294	-949.85962	
4412	44.110	-692.53448	20.19700	-568.87061	722.67480	25.87748	-484.53256	-763.50775	-20.74120	649.04889	806.68146	-13.46630	652.89655	16.68608	663.45551	-949.92108	
4413	44.120	-692.35034	20.13907	-568.89954	722.88037	25.61294	-484.34277	-763.22388	-20.71009	649.00757	806.83636	-13.49181	652.84344	16.91464	663.37451	-949.98944	
4414	44.130	-692.07245	20.09856	-568.92218	723.15277	25.64525	-484.34036	-762.94464	-20.49817	649.15021	807.03674	-13.58397	652.83307	17.32688	663.21936	-950.10425	
4415	44.140	-691.75067	20.19232	-568.92480	723.39117	25.63753	-484.34976	-762.80542	-20.60948	649.10681	807.26715	-13.59834	652.85315	17.64373	663.20813	-950.13403	
4416	44.150	-691.48914	20.21378	-568.87506	723.54657	25.62338	-484.38229	-762.48016	-20.57939	649.10870	807.67828	-13.62248	652.81659	18.03632	663.25397	-950.18140	
4417	44.160	-691.29742	20.20280	-568.85913	723.70801	25.65843	-484.40979	-762.36816	-20.73298	649.10370	807.93982	-13.57699	652.87354	18.49489	663.28961	-950.05914	
4418	44.170	-691.02173	20.08930	-568.92706	723.87573	25.70973	-484.47696	-762.14911	-20.70846	649.12244	808.09259	-13.55206	652.87305	18.75536	663.27600	-949.94470	
4419	44.180	-690.77252	19.94126	-568.94061	724.08752	25.70886	-484.52551	-761.95715	-20.61268	649.14496	808.42810	-13.39750	652.88556	18.54081	663.21173	-950.14880	
4420	44.190	-690.58588	19.94525	-568.96765	724.37311	25.69124	-484.58960	-761.76093	-20.58519	649.12946	808.72162	-13.26581	652.95520	18.85937	663.17950	-950.11359	
4421	44.200	-690.19751	19.86187	-568.99640	724.56329	25.78374	-484.67841	-761.41132	-20.43990	649.18878	808.90039	-13.20098	652.93903	19.16984	663.13245	-950.06610	
4422	44.210	-689.76331	19.72620	-568.98315	724.83173	25.75018	-484.60449	-761.05463	-20.38134	649.15619	809.26270	-13.14250	652.91162	19.48098	663.07843	-950.06390	
4423	44.220	-689.44891	19.70284	-569.02802	725.17334	25.72074	-484.66806	-760.73340	-20.30659	649.12158	809.49115	-13.06111	652.88208	19.76784	662.93494	-950.15930	
4424	44.230	-689.23474	19.55350	-569.01465	725.36798	25.63136	-484.65723	-760.36981	-20.22450	649.15289	809.67181	-12.97012	652.85010	19.92300	662.85327	-950.23816	
4425	44.240	-689.27979	19.79197	-569.03223	725.61560	25.54002	-484.62115	-760.20819	-20.24786	649.15637	809.89587	-12.89135	652.80585	20.11842	662.72516	-950.33820	
4426	44.250	-689.15509	19.62510	-569.01617	725.82251	25.37430	-484.66354	-760.16498	-20.34464	649.05194	810.15540	-12.81943	652.74060	20.27031	662.63690	-950.41345	
4427	44.260	-688.94177	19.57360	-568.93665	725.97803	25.36387	-484.65332	-759.96838	-20.34423	649.02307	810.39124	-12.71266	652.66638	20.38162	662.60077	-950.59924	
4428	44.270	-688.70404	19.59994	-569.00061	726.30933	25.11099	-484.50531	-759.75659	-20.23548	649.05341	810.54559	-12.70610	652.59857	20.67346	662.52258	-950.89294	
4429	44.280	-688.51709	19.62120	-569.03131	726.49646	25.12469	-484.48859	-759.50598	-20.26623	649.04144	810.72363	-12.71069	652.56683	20.86360	662.45435	-951.04108	
4430	44.290	-688.37085	19.61753	-569.10132	726.73224	25.17402	-484.47272	-759.30530	-20.27598	649.03137	810.84509	-12.76883	652.58411	20.89717	662.46600	-951.08075	
4431	44.300	-688.22583	19.60316	-569.18115	726.88281	25.12118	-484.51788	-759.14551	-20.27077	649.02307	811.04517	-12.71812	652.59424	21.00005	662.51062	-951.08838	
4432	44.310	-688.10767	19.61682	-569.18604	727.05066	25.17503	-484.48965	-758.95502	-20.31780	649.01733	811.19153	-12.66887	652.60217	21.06067	662.51154	-951.03345	
4433	44.320	-687.92639	19.64278	-569.19366	727.15735	25.17265	-484.50961	-758.89343	-20.28407	649.08252	811.25677	-12.69418	652.56647	21.16366	662.54712	-950.86707	
4434	44.330	-687.77881	19.63418	-569.19946	727.22577	25.22032	-484.50906	-758.69629	-20.21878	649.01501	811.49084	-12.70062	652.66321	21.44367	662.50659	-950.71747	
4435	44.340	-687.62982	19.62484	-569.25323	727.26965	25.20820	-484.54810	-758.59454	-20.18803	649.03918	811.77533	-12.74294	652.70862	21.62823	662.52557	-950.53876	
4436	44.350	-687.45190	19.60377	-569.24469	727.36334	25.21917	-484.60858	-758.42029	-20.18978	649.04614	811.96747	-13.06784	652.44434	21.83757	662.53638	-950.40161	
4437	44.360	-687.27008	19.62727	-569.21710	727.45276	25.21206	-484.60535	-758.24908	-20.19603	649.00006	812.00250	-12.81213	652.77136	21.92030	662.54547	-950.38263	
4438	44.370	-687.16876	19.67526	-569.21051	727.49249	25.26608	-484.60773	-758.22192	-20.56614	648.97760	812.07916	-13.04354	652.44702	21.91290	662.60602	-950.34778	
4439	44.380	-687.09180	19.66537	-569.23676	727.60535	25.28624	-484.61945	-758.05530	-20.52107	648.95825	812.14374	-12.99610	652.43384	22.05083	662.61505	-950.32520	
4440	44.390	-686.96179	19.62458	-569.21265	727.61713	25.34700	-484.75827	-757.87579	-20.28740	649.00311	812.15747	-12.77583	652.76569	22.16060	662.54968	-950.41174	
4441	44.400	-686.87714	19.59412	-569.22235	727.77728	25.18807	-484.63858	-757.73792	-20.38989	649.03290	812.18488	-12.74074	652.72491	22.40451	662.44507	-950.47015	
